<svg xmlns="http://www.w3.org/2000/svg"
     width="320"
     height="88"
     viewBox="0 0 320 88">
    <defs>
        <linearGradient id="a" x1=".1102" x2="43.2" y1="277.5" y2="277.5"
                        gradientTransform="matrix(3.844 0 0 3.778 -.1312 -1026)"
                        gradientUnits="userSpaceOnUse">
            <stop stop-color="999"
                  offset="0"/>
            <stop stop-opacity="0"
                  offset="1"/>
        </linearGradient>
    </defs>
    <path d="m110.5 29.27q0 11.43-8.075 24.18-10.68 16.81-31.02 26.05-18.75 8.496-40.32 8.496h-20.98l23.01-64.11h22.95l-19.52 54.11q12.52 0 24.8-7.559 12.33-7.559 17.99-18.68 5.085-9.809 5.085-16.37 0-10.75-6.103-15.43-5.467-4.124-16.79-4.124h-61.49l9.79-15.74h61.53q15.96 0 26.58 6.622 12.52 7.811 12.52 22.55z"
          fill="url(#a)"/>
    <g fill="none"
       stroke-dasharray="0.5,0.5"
       stroke-dashoffset=".05"
       stroke-width="1"
       stroke="#333">
        <path d="m231.9 30.78q-2.162 6.664-10.34 6.664h-25.18l-7.968 21.66h-15.17l7.968-21.66h-13.01q-21.36 25.33-41.73 25.33-5.935 0-10-2.166-5.127-2.749-5.127-8.082 0-4.541 3.815-8.872 6.145-6.957 18.61-10.29 9.748-2.582 21.53-2.582h8.224l25.68-30.28h20.43l-10.93 30.28zm-39.51-23.37-18.57 23.37h9.453zm-34.63 30.03q-15.89 0-22.29 4.5-5.299 3.749-5.299 7.954 0 3.582 3.815 3.582 5.257 0 13.14-5.832 6.907-5.038 10.64-10.2z"/>
        <path d="m268.1 52.23q-1.059 3.666-4.874 5.414-2.67 1.25-5.72 1.25h-16.66q-5.808 0-5.808-4.414 0-1.374 0.5934-2.999l4.365-11.62q-1.95 1.999-15.56 13.91-3.348 2.999-5.085 3.917-2.289 1.208-5.51 1.208h-6.314l18.06-50.23h15.26l-11.28 31.11 16.91-16.54h9.748l-9.832 9.997h3.221q5.892 0 5.892 4.455 0 1.416-0.6781 3.29l-4.154 11.25z"/>
        <path d="m319.5 52.23q-0.1695 2.791-3.264 4.748-3.052 1.916-6.696 1.916h-32.21q-9.281 0-9.281-5.58 0-0.4997 0.0847-1.083 0.3391-2.499 2.713-3.875 2.035-1.208 4.663-1.166 4.579 0.1249 12.42 4.955 2.246-2.749 2.246-5.58 0-1.416-1.822-6.457l-4.79 4.289h-8.477l11.28-10.25q-0.7631-1.291-1.059-2.124-0.551-1.541-0.5935-3.499l10.43-10.91q7.037 1.166 7.037 6.291 0 2.999-1.822 5.539 1.568 4.082 3.179 8.165 1.95 5.249 1.95 8.496 0 3.582-2.882 6.122z"/>
    </g>
    <g fill="#777">
        <path d="m295.6 6.055h-1.794v2.69q0 0.5768-0.277 0.8752-0.277 0.298-0.6991 0.298-0.4418 0-0.7122-0.2916-0.2704-0.298-0.2704-0.8684v-7.322q0-0.6351 0.2968-0.9075 0.2968-0.272 0.943-0.272h2.513q1.115 0 1.715 0.1686 0.5935 0.1622 1.022 0.5381 0.4353 0.3759 0.6597 0.9203 0.2242 0.5444 0.2242 1.225 0 1.452-0.9101 2.204-0.9101 0.7454-2.711 0.7454zm-0.4748-4.357h-1.319v2.904h1.319q0.6926 0 1.154-0.1426 0.4682-0.1426 0.7122-0.4666t0.244-0.8492q0-0.6287-0.376-1.024-0.4219-0.4214-1.734-0.4214z"/>
        <path d="m303.4 5.678h-0.6857v3.053q0 0.6028-0.2704 0.888t-0.7056 0.2852q-0.4683 0-0.7256-0.298t-0.2572-0.8752v-7.311q0-0.6223 0.2836-0.9008 0.2836-0.2788 0.9166-0.2788h3.186q0.6597 0 1.128 0.05833 0.4683 0.05192 0.8442 0.2205 0.4552 0.1878 0.8048 0.5381 0.3495 0.3499 0.5276 0.8165 0.1847 0.4602 0.1847 0.9787 0 1.063-0.6134 1.698-0.6069 0.6351-1.847 0.9008 0.5211 0.272 0.9959 0.8037 0.4748 0.5313 0.8442 1.134 0.376 0.5964 0.5804 1.082 0.211 0.4797 0.211 0.6611 0 0.1881-0.1253 0.3759-0.1187 0.1814-0.3298 0.2852-0.211 0.1102-0.4882 0.1102-0.3298 0-0.554-0.1554-0.2242-0.149-0.389-0.3823-0.1583-0.2333-0.4353-0.6871l-0.7849-1.283q-0.4219-0.7066-0.7585-1.076-0.3298-0.3695-0.6727-0.5057-0.343-0.1362-0.8642-0.1362zm1.121-3.992h-1.807v2.612h1.754q0.7056 0 1.187-0.1166 0.4813-0.123 0.732-0.4082 0.2572-0.2916 0.2572-0.7973 0-0.3955-0.2045-0.6935-0.2044-0.3048-0.567-0.4538-0.3429-0.1426-1.352-0.1426z"/>
        <path d="m314.7 0.03439q1.504 0 2.579 0.6028 1.082 0.5964 1.636 1.704 0.554 1.102 0.554 2.592 0 1.102-0.3034 2.003-0.3034 0.9008-0.9101 1.562-0.6068 0.6611-1.491 1.011-0.8837 0.3499-2.025 0.3499-1.134 0-2.031-0.3563-0.8971-0.3631-1.497-1.017-0.6004-0.6547-0.9101-1.575-0.3034-0.9203-0.3034-1.99 0-1.095 0.3166-2.009 0.3232-0.9139 0.93-1.555 0.6069-0.6415 1.478-0.9787 0.8707-0.3435 1.979-0.3435zm2.783 4.888q0-1.043-0.343-1.808-0.3429-0.7649-0.9828-1.154-0.6333-0.3954-1.458-0.3954-0.587 0-1.088 0.2205-0.4947 0.2137-0.8573 0.6287-0.3561 0.4146-0.567 1.063-0.2044 0.6415-0.2044 1.445 0 0.8101 0.2044 1.465 0.2111 0.6547 0.587 1.089 0.3825 0.4278 0.8707 0.6415 0.4947 0.2137 1.082 0.2137 0.752 0 1.378-0.3695 0.6333-0.3695 1.002-1.141 0.376-0.7713 0.376-1.899z"/>
    </g>
</svg>
